<?xml version="1.0" encoding="UTF-8"?>
<svg width="24px" height="24px" viewBox="0 0 24 24" version="1.1" xmlns="http://www.w3.org/2000/svg" xmlns:xlink="http://www.w3.org/1999/xlink">
    <title>录屏</title>
    <g id="录屏" stroke="none" stroke-width="1" fill="none" fill-rule="evenodd">
        <rect id="矩形" x="0" y="0" width="24" height="24"></rect>
        <path d="M14,5 C15.6568542,5 17,6.34314575 17,8 L17,8.565 L18.9117099,7.29126821 C19.2041372,7.09631665 19.5899021,7.1504299 19.8187414,7.40355534 L19.8824352,7.48541328 C19.9590934,7.60040054 20,7.73550593 20,7.87370342 L20,7.87370342 L20,15.1262966 C20,15.5128959 19.6865993,15.8262966 19.3,15.8262966 C19.1618025,15.8262966 19.0266971,15.78539 18.9117099,15.7087318 L18.9117099,15.7087318 L17,14.434 L17,15 C17,16.6568542 15.6568542,18 14,18 L7,18 C5.34314575,18 4,16.6568542 4,15 L4,8 C4,6.34314575 5.34314575,5 7,5 L14,5 Z M14,6 L7,6 C5.9456382,6 5.08183488,6.81587779 5.00548574,7.85073766 L5,8 L5,15 C5,16.0543618 5.81587779,16.9181651 6.85073766,16.9945143 L7,17 L14,17 C15.0543618,17 15.9181651,16.1841222 15.9945143,15.1492623 L16,15 L16,8 C16,6.9456382 15.1841222,6.08183488 14.1492623,6.00548574 L14,6 Z M19,8.434 L17,9.767 L17,13.232 L19,14.565 L19,8.434 Z M9.5,9 C9.77614237,9 10,9.22385763 10,9.5 C10,9.77614237 9.77614237,10 9.5,10 L7.5,10 C7.22385763,10 7,9.77614237 7,9.5 C7,9.22385763 7.22385763,9 7.5,9 L9.5,9 Z" id="形状结合" fill="#FFFFFF" fill-rule="nonzero"></path>
    </g>
</svg>