<?xml version="1.0" encoding="UTF-8"?>
<svg width="24px" height="24px" viewBox="0 0 24 24" version="1.1" xmlns="http://www.w3.org/2000/svg" xmlns:xlink="http://www.w3.org/1999/xlink">
    <title>矩形</title>
    <g id="矩形" stroke="none" stroke-width="1" fill="none" fill-rule="evenodd">
        <rect x="0" y="0" width="24" height="24"></rect>
        <path d="M17,5 C18.1045695,5 19,5.8954305 19,7 L19,17 C19,18.1045695 18.1045695,19 17,19 L7,19 C5.8954305,19 5,18.1045695 5,17 L5,7 C5,5.8954305 5.8954305,5 7,5 L17,5 Z M17,6 L7,6 C6.48716416,6 6.06449284,6.38604019 6.00672773,6.88337887 L6,7 L6,17 C6,17.5128358 6.38604019,17.9355072 6.88337887,17.9932723 L7,18 L17,18 C17.5128358,18 17.9355072,17.6139598 17.9932723,17.1166211 L18,17 L18,7 C18,6.48716416 17.6139598,6.06449284 17.1166211,6.00672773 L17,6 Z" fill="#FFFFFF" fill-rule="nonzero"></path>
    </g>
</svg>