<?xml version="1.0" encoding="UTF-8"?>
<svg width="24px" height="24px" viewBox="0 0 24 24" version="1.1" xmlns="http://www.w3.org/2000/svg" xmlns:xlink="http://www.w3.org/1999/xlink">
    <title>箭头</title>
    <g id="箭头" stroke="none" stroke-width="1" fill="none" fill-rule="evenodd">
        <rect id="矩形" x="0" y="0" width="24" height="24"></rect>
        <path d="M17.5,5.75 L17.517448,5.75020172 C17.5374655,5.75066463 17.5574681,5.75192429 17.577404,5.7539807 L17.5,5.75 C17.5468456,5.75 17.592688,5.75429489 17.6371551,5.76251238 C17.6480328,5.76457582 17.6597261,5.76701468 17.671367,5.76973472 C17.6948272,5.77517085 17.7172835,5.78157935 17.7392836,5.78898031 C17.7490913,5.79230301 17.7594565,5.79602848 17.7697519,5.79998933 C17.7890942,5.80744952 17.8075139,5.815445 17.8255328,5.82413984 C17.8399909,5.83105843 17.8546244,5.8387019 17.8690453,5.84686081 C17.8865081,5.85681304 17.9036581,5.86746126 17.9203291,5.8787629 C17.9306612,5.88568532 17.9411291,5.89317572 17.9514416,5.90096775 C18.0081986,5.94390193 18.0585304,5.99447237 18.1010016,6.05126304 L18.0303301,5.96966991 C18.0673834,6.00672319 18.0997491,6.04668892 18.1274273,6.08883021 C18.1405922,6.10898514 18.1529723,6.12997247 18.164329,6.15158175 C18.1691626,6.16070362 18.1735192,6.16943437 18.1776949,6.17822959 C18.190442,6.20501812 18.2019466,6.23347789 18.2116971,6.26273953 C18.2139554,6.26968322 18.2158799,6.27575442 18.2177252,6.28184446 C18.2290814,6.31893395 18.2377062,6.35807689 18.2431534,6.39822944 L18.25,6.5 L18.25,13 C18.25,13.4142136 17.9142136,13.75 17.5,13.75 C17.1203042,13.75 16.806509,13.4678461 16.7568466,13.1017706 L16.75,13 L16.75,8.31 L7.03033009,18.0303301 C6.73743687,18.3232233 6.26256313,18.3232233 5.96966991,18.0303301 C5.70340335,17.7640635 5.6791973,17.3473998 5.89705176,17.0537883 L5.96966991,16.9696699 L15.688,7.25 L11,7.25 C10.6203042,7.25 10.306509,6.96784612 10.2568466,6.60177056 L10.25,6.5 C10.25,6.12030423 10.5321539,5.80650904 10.8982294,5.75684662 L11,5.75 L17.5,5.75 Z" id="形状结合" fill="#FFFFFF" fill-rule="nonzero"></path>
    </g>
</svg>