<?xml version="1.0" encoding="UTF-8"?>
<svg width="24px" height="24px" viewBox="0 0 24 24" version="1.1" xmlns="http://www.w3.org/2000/svg" xmlns:xlink="http://www.w3.org/1999/xlink">
    <title>画笔</title>
    <g id="画笔" stroke="none" stroke-width="1" fill="none" fill-rule="evenodd">
        <rect id="矩形" x="0" y="0" width="24" height="24"></rect>
        <g id="编组" transform="translate(11.880771, 11.869229) rotate(-135.000000) translate(-11.880771, -11.869229) translate(8.780771, 2.350614)" fill="#FFFFFF" fill-rule="nonzero">
            <path d="M3.1,7.59281015e-16 L6.2,3.72 L6.199,14.837 L6.2,14.83723 L6.2,16.03723 L6.199,16.037 L6.2,17.43723 C6.2,18.2717936 5.56103848,18.9571197 4.74563261,19.0306913 L4.6,19.03723 L1.6,19.03723 C0.7163444,19.03723 -2.1559345e-15,18.3208856 -1.9395013e-15,17.43723 L-1.9395013e-15,17.43723 L1.42025106e-15,3.72 L3.1,7.59281015e-16 Z M4.999,16.037 L1.199,16.037 L1.2,17.43723 C1.2,17.6029154 1.30073593,17.7450727 1.44430195,17.805796 L1.51938605,17.8291034 L1.6,17.83723 L4.6,17.83723 C4.8209139,17.83723 5,17.6581439 5,17.43723 L5,17.43723 L4.999,16.037 Z M3.1,1.87422996 L1.199,4.15422996 L1.199,14.837 L4.999,14.837 L4.999,4.15322996 L3.1,1.87422996 Z" id="形状结合"></path>
        </g>
    </g>
</svg>