<?xml version="1.0" standalone="no"?><!DOCTYPE svg PUBLIC "-//W3C//DTD SVG 1.1//EN" "http://www.w3.org/Graphics/SVG/1.1/DTD/svg11.dtd"><svg t="1659168242240" class="icon" viewBox="0 0 1024 1024" version="1.1" xmlns="http://www.w3.org/2000/svg" p-id="2420" width="24" height="24" xmlns:xlink="http://www.w3.org/1999/xlink"><defs><style type="text/css"></style></defs><path d="M921.6 347.802L650.598 76.8c-9.625-9.626-22.528-14.95-36.198-14.95s-26.573 5.324-36.198 14.95L563.2 91.802c-14.848 14.848-25.6 40.806-25.6 61.798v51.2c0 7.27-5.427 20.429-10.598 25.6L384 373.402c-5.171 5.17-18.33 10.598-25.6 10.598h-51.2c-20.992 0-46.95 10.752-61.798 25.6L230.4 424.602c-19.968 19.968-19.968 52.428 0 72.396l79.514 79.514-253.44 329.472c-7.834 10.189-6.912 24.627 2.201 33.69 4.967 4.966 11.52 7.475 18.125 7.475 5.478 0 10.957-1.741 15.616-5.325l329.472-253.44 79.514 79.514c9.625 9.625 22.528 14.95 36.198 14.95s26.573-5.325 36.198-14.95l15.002-15.002c14.848-14.848 25.6-40.806 25.6-61.798v-51.2c0-7.27 5.427-20.43 10.598-25.6L768 471.296c5.171-5.171 18.33-10.598 25.6-10.598h51.2c20.992 0 46.95-10.752 61.798-25.6l15.002-15.002c9.626-9.626 14.95-22.528 14.95-36.198s-5.324-26.573-14.95-36.199zM216.78 781.619l129.69-168.601 38.912 38.912-168.601 129.69zM870.4 399.002c-5.171 5.17-18.33 10.598-25.6 10.598h-51.2c-20.992 0-46.95 10.752-61.798 25.6L588.8 578.202c-14.848 14.848-25.6 40.806-25.6 61.798v51.2c0 7.27-5.427 20.429-10.598 25.6l-14.95 14.95h-0.052v0.052L266.598 460.8l15.002-15.002c5.171-5.17 18.33-10.598 25.6-10.598h51.2c20.992 0 46.95-10.752 61.798-25.6L563.2 266.598c14.848-14.848 25.6-40.806 25.6-61.798v-51.2c0-7.27 5.427-20.429 10.598-25.6l15.002-15.002L885.402 384 870.4 399.002z" p-id="2421" fill="#8a8a8a"></path></svg>