<?xml version="1.0" encoding="UTF-8"?>
<svg width="24px" height="24px" viewBox="0 0 24 24" version="1.1" xmlns="http://www.w3.org/2000/svg" xmlns:xlink="http://www.w3.org/1999/xlink">
    <title>模糊</title>
    <g id="模糊" stroke="none" stroke-width="1" fill="none" fill-rule="evenodd">
        <rect id="矩形" x="0" y="0" width="24" height="24"></rect>
        <path d="M17,5 C18.1045695,5 19,5.8954305 19,7 L19,17 C19,18.1045695 18.1045695,19 17,19 L7,19 C5.8954305,19 5,18.1045695 5,17 L5,7 C5,5.8954305 5.8954305,5 7,5 L17,5 Z M17,6 L7,6 C6.48716416,6 6.06449284,6.38604019 6.00672773,6.88337887 L6,7 L6,17 C6,17.5128358 6.38604019,17.9355072 6.88337887,17.9932723 L7,18 L17,18 C17.5128358,18 17.9355072,17.6139598 17.9932723,17.1166211 L18,17 L18,7 C18,6.48716416 17.6139598,6.06449284 17.1166211,6.00672773 L17,6 Z M11.5107308,14.3372987 C11.7023348,14.4650347 11.8793655,14.6130021 12.03883,14.7785117 L12.1923283,14.949769 L12.3841106,15.1799078 C13.1103357,16.0513778 14.4055234,16.1691222 15.2769935,15.4428971 C15.4511463,15.2977698 15.5997687,15.1250704 15.7171358,14.9320272 L15.7992113,14.7835434 L16.0527864,14.2763932 C16.176281,14.029404 16.4766175,13.9292918 16.7236068,14.0527864 C16.9431528,14.1625594 17.0466478,14.4120593 16.980202,14.639617 L16.9472136,14.7236068 L16.6936385,15.230757 C16.5052142,15.6076056 16.2408522,15.9413898 15.9171779,16.2111184 C14.6712673,17.2493772 12.8428813,17.1274496 11.7441507,15.9646204 L11.6158894,15.8200922 L11.424107,15.5899534 C11.2891214,15.4279706 11.131472,15.28631 10.9560306,15.169349 C9.9486614,14.4977696 8.5876046,14.7699809 7.91602515,15.7773501 C7.76284892,16.0071144 7.45241425,16.0692014 7.2226499,15.9160251 C6.99288556,15.7628489 6.93079862,15.4524142 7.08397485,15.2226499 C8.06190677,13.755752 10.0438329,13.3593668 11.5107308,14.3372987 Z M11.5107308,11.3372987 C11.7023348,11.4650347 11.8793655,11.6130021 12.03883,11.7785117 L12.1923283,11.949769 L12.3841106,12.1799078 C13.1103357,13.0513778 14.4055234,13.1691222 15.2769935,12.4428971 C15.4511463,12.2977698 15.5997687,12.1250704 15.7171358,11.9320272 L15.7992113,11.7835434 L16.0527864,11.2763932 C16.176281,11.029404 16.4766175,10.9292918 16.7236068,11.0527864 C16.9431528,11.1625594 17.0466478,11.4120593 16.980202,11.639617 L16.9472136,11.7236068 L16.6936385,12.230757 C16.5052142,12.6076056 16.2408522,12.9413898 15.9171779,13.2111184 C14.6712673,14.2493772 12.8428813,14.1274496 11.7441507,12.9646204 L11.6158894,12.8200922 L11.424107,12.5899534 C11.2891214,12.4279706 11.131472,12.28631 10.9560306,12.169349 C9.9486614,11.4977696 8.5876046,11.7699809 7.91602515,12.7773501 C7.76284892,13.0071144 7.45241425,13.0692014 7.2226499,12.9160251 C6.99288556,12.7628489 6.93079862,12.4524142 7.08397485,12.2226499 C8.06190677,10.755752 10.0438329,10.3593668 11.5107308,11.3372987 Z M11.5107308,8.33729872 C11.7023348,8.46503472 11.8793655,8.61300213 12.03883,8.77851169 L12.1923283,8.94976901 L12.3841106,9.1799078 C13.1103357,10.0513778 14.4055234,10.1691222 15.2769935,9.44289715 C15.4511463,9.2977698 15.5997687,9.12507035 15.7171358,8.93202721 L15.7992113,8.78354336 L16.0527864,8.2763932 C16.176281,8.02940395 16.4766175,7.92929178 16.7236068,8.0527864 C16.9431528,8.1625594 17.0466478,8.41205933 16.980202,8.63961698 L16.9472136,8.7236068 L16.6936385,9.23075696 C16.5052142,9.60760555 16.2408522,9.94138983 15.9171779,10.2111184 C14.6712673,11.2493772 12.8428813,11.1274496 11.7441507,9.9646204 L11.6158894,9.8200922 L11.424107,9.58995341 C11.2891214,9.42797063 11.131472,9.28630995 10.9560306,9.16934901 C9.9486614,8.49776955 8.5876046,8.76998091 7.91602515,9.7773501 C7.76284892,10.0071144 7.45241425,10.0692014 7.2226499,9.91602515 C6.99288556,9.76284892 6.93079862,9.45241425 7.08397485,9.2226499 C8.06190677,7.75575203 10.0438329,7.3593668 11.5107308,8.33729872 Z" id="形状结合" fill="#FFFFFF" fill-rule="nonzero"></path>
    </g>
</svg>