<?xml version="1.0" encoding="UTF-8"?>
<svg width="24px" height="24px" viewBox="0 0 24 24" version="1.1" xmlns="http://www.w3.org/2000/svg" xmlns:xlink="http://www.w3.org/1999/xlink">
    <title>文字</title>
    <g id="文字" stroke="none" stroke-width="1" fill="none" fill-rule="evenodd">
        <rect id="矩形" x="0" y="0" width="24" height="24"></rect>
        <path d="M12.641734,4.61065099 L12.6930126,4.71323616 L18.6930126,19.2132362 C18.8513879,19.5959765 18.6695041,20.0346373 18.2867638,20.1930126 C17.9359186,20.33819 17.5380845,20.1974552 17.3522259,19.8781837 L17.3069874,19.7867638 L15.2228036,14.75 L8.77680361,14.75 L6.69301262,19.7867638 C6.54783527,20.1376091 6.16714018,20.3196791 5.80989168,20.2255984 L5.71323616,20.1930126 C5.36239088,20.0478353 5.18032088,19.6671402 5.27440161,19.3098917 L5.30698738,19.2132362 L11.3069874,4.71323616 C11.5475319,4.1319202 12.3366513,4.09772514 12.641734,4.61065099 Z M12,6.962 L9.39780361,13.25 L14.6018036,13.25 L12,6.962 Z" id="形状结合" fill="#FFFFFF" fill-rule="nonzero"></path>
    </g>
</svg>