<?xml version="1.0" standalone="no"?><!DOCTYPE svg PUBLIC "-//W3C//DTD SVG 1.1//EN" "http://www.w3.org/Graphics/SVG/1.1/DTD/svg11.dtd"><svg t="1633629870121" class="icon" viewBox="0 0 1024 1024" version="1.1" xmlns="http://www.w3.org/2000/svg" p-id="11936" width="32" height="32" xmlns:xlink="http://www.w3.org/1999/xlink"><defs><style type="text/css"></style></defs><path d="M234.3 269.5H118.8c-12 0-21.7-9.7-21.7-21.7s9.7-21.7 21.7-21.7h115.5c12 0 21.7 9.7 21.7 21.7-0.1 12-9.8 21.7-21.7 21.7z m543.1 619.8c-12 0-21.7-9.7-21.7-21.7V764.8c0-12 9.7-21.7 21.7-21.7s21.7 9.7 21.7 21.7v102.9c0 11.9-9.7 21.6-21.7 21.6z m0 0" fill="#2197EF" p-id="11937"></path><path d="M241.8 776.1c-12 0-21.7-9.7-21.7-21.7V158.8c0-12 9.7-21.7 21.7-21.7s21.7 9.7 21.7 21.7v595.6c0 12-9.7 21.7-21.7 21.7z m0 0" fill="#2197EF" p-id="11938"></path><path d="M364.1 269.5h413.3c12 0 21.7-9.7 21.7-21.7s-9.7-21.7-21.7-21.7H364.1c-12 0-21.7 9.7-21.7 21.7s9.7 21.7 21.7 21.7z" fill="#A9DEFF" p-id="11939"></path><path d="M876.5 732.8H249.4c-12 0-21.7 9.7-21.7 21.7s9.7 21.7 21.7 21.7h627.1c12 0 21.7-9.7 21.7-21.7-0.1-12.1-9.8-21.7-21.7-21.7z" fill="#2197EF" p-id="11940"></path><path d="M777.4 662.6c-12 0-21.7-9.7-21.7-21.7V247.8c0-12 9.7-21.7 21.7-21.7s21.7 9.7 21.7 21.7v393.1c0 12-9.7 21.7-21.7 21.7z m0 0" fill="#A9DEFF" p-id="11941"></path></svg>