<?xml version="1.0" standalone="no"?><!DOCTYPE svg PUBLIC "-//W3C//DTD SVG 1.1//EN" "http://www.w3.org/Graphics/SVG/1.1/DTD/svg11.dtd"><svg class="icon" width="32px" height="32.00px" viewBox="0 0 1024 1024" version="1.1" xmlns="http://www.w3.org/2000/svg"><path fill="#515151" d="M960 992H256A96 96 0 0 1 160 896V256A96 96 0 0 1 256 160h640A96 96 0 0 1 992 256v704a32 32 0 0 1-32 32zM256 224a32 32 0 0 0-32 32v640a32 32 0 0 0 32 32h672V256a32 32 0 0 0-32-32zM64 792.32a32 32 0 0 1-32-32V136.32A104.32 104.32 0 0 1 136.32 32H768a32 32 0 0 1 0 64H136.32a40.32 40.32 0 0 0-39.68 40.32v624a32 32 0 0 1-32.64 32z" /></svg>