<?xml version="1.0" standalone="no"?><!DOCTYPE svg PUBLIC "-//W3C//DTD SVG 1.1//EN" "http://www.w3.org/Graphics/SVG/1.1/DTD/svg11.dtd"><svg class="icon" width="32px" height="32.00px" viewBox="0 0 1024 1024" version="1.1" xmlns="http://www.w3.org/2000/svg"><path fill="#515151" d="M766.4 269.6 552 484l214.4 214.4c18.4 18.4 18.4 48.8 0 68-18.4 18.4-48.8 18.4-68 0L484 552 269.6 765.6c-18.4 18.4-48.8 18.4-68 0-18.4-18.4-18.4-48.8 0-68L416 484 201.6 269.6c-18.4-18.4-18.4-48.8 0-68 18.4-18.4 48.8-18.4 68 0L484 416l214.4-214.4c18.4-18.4 48.8-18.4 68 0C784.8 220.8 784.8 251.2 766.4 269.6z" /></svg>