<?xml version="1.0" standalone="no"?><!DOCTYPE svg PUBLIC "-//W3C//DTD SVG 1.1//EN" "http://www.w3.org/Graphics/SVG/1.1/DTD/svg11.dtd"><svg class="icon" width="32px" height="32.00px" viewBox="0 0 1024 1024" version="1.1" xmlns="http://www.w3.org/2000/svg"><path fill="#515151" d="M971.715765 167.574588a120.470588 120.470588 0 0 1 0 170.405647L325.511529 984.184471a120.470588 120.470588 0 0 1-85.172705 35.297882H34.635294V813.778824a120.470588 120.470588 0 0 1 35.297882-85.172706L716.197647 82.401882a120.470588 120.470588 0 0 1 170.405647 0l85.172706 85.172706z m-183.296 225.882353l-127.759059-127.759059-526.817882 526.817883a30.117647 30.117647 0 0 0-8.432942 16.564706l-0.421647 4.698353v115.350588H240.338824a30.117647 30.117647 0 0 0 17.648941-5.782588l3.614117-3.011765 526.817883-526.878118z m119.386353-161.972706L822.633412 146.371765a30.117647 30.117647 0 0 0-38.430118-3.493647l-4.21647 3.493647-55.416471 55.476706 127.698823 127.819294 55.536942-55.536941a30.117647 30.117647 0 0 0 3.493647-38.430118l-3.493647-4.156235z" /></svg>