<?xml version="1.0" standalone="no"?><!DOCTYPE svg PUBLIC "-//W3C//DTD SVG 1.1//EN" "http://www.w3.org/Graphics/SVG/1.1/DTD/svg11.dtd"><svg class="icon" width="32px" height="32.00px" viewBox="0 0 1024 1024" version="1.1" xmlns="http://www.w3.org/2000/svg"><path fill="#515151" d="M609.834667 140.501333a42.624 42.624 0 0 1 60.330666 0l213.333334 213.333334c1.194667 1.194667 2.346667 2.517333 3.413333 3.84l0.682667 0.896a32.085333 32.085333 0 0 1 2.133333 3.2c0.298667 0.512 0.64 1.024 0.896 1.578666a49.536 49.536 0 0 1 2.261333 4.821334l0.938667 2.56 0.597333 1.962666 0.682667 2.773334 0.384 2.218666A38.229333 38.229333 0 0 1 896 384l-0.170667-3.669333a20.864 20.864 0 0 1 0.128 2.304L896 384l-0.042667 1.450667-0.128 2.218666a53.461333 53.461333 0 0 1-0.298666 2.730667l-0.384 2.218667c-0.170667 0.938667-0.426667 1.877333-0.64 2.773333a26.368 26.368 0 0 1-0.597334 1.962667c-0.256 0.853333-0.597333 1.664-0.896 2.517333a34.858667 34.858667 0 0 1-2.304 4.821333l-0.896 1.536a40.874667 40.874667 0 0 1-6.272 7.936l3.413334-3.84-0.298667 0.384-3.114667 3.498667-213.333333 213.333333a42.624 42.624 0 1 1-60.330667-60.330666L750.293333 426.666667H341.333333a128 128 0 0 0-127.786666 120.490666L213.333333 554.666667v298.666666a42.666667 42.666667 0 0 1-85.333333 0v-298.666666a213.333333 213.333333 0 0 1 213.333333-213.333334h408.96l-140.458666-140.501333a42.666667 42.666667 0 0 1-3.541334-56.32l3.541334-4.010667z" /></svg>