<?xml version="1.0" standalone="no"?><!DOCTYPE svg PUBLIC "-//W3C//DTD SVG 1.1//EN" "http://www.w3.org/Graphics/SVG/1.1/DTD/svg11.dtd"><svg class="icon" width="32px" height="32.00px" viewBox="0 0 1024 1024" version="1.1" xmlns="http://www.w3.org/2000/svg"><path fill="#515151" d="M928 752h-96v-448c0-54.4-41.6-96-96-96h-480v-128c0-19.2-12.8-32-32-32s-32 12.8-32 32v128h-96c-19.2 0-32 12.8-32 32s12.8 32 32 32h96v448c0 54.4 41.6 96 96 96h480v128c0 19.2 12.8 32 32 32s32-12.8 32-32v-128h96c19.2 0 32-12.8 32-32s-12.8-32-32-32z m-640 0c-19.2 0-32-12.8-32-32v-448h480c19.2 0 32 12.8 32 32v448h-480z" /></svg>