<?xml version="1.0" standalone="no"?><!DOCTYPE svg PUBLIC "-//W3C//DTD SVG 1.1//EN" "http://www.w3.org/Graphics/SVG/1.1/DTD/svg11.dtd"><svg class="icon" width="32px" height="32.00px" viewBox="0 0 1024 1024" version="1.1" xmlns="http://www.w3.org/2000/svg"><path fill="#515151" d="M510.5 104.8c55.1 0 108.5 10.8 158.7 32 48.6 20.5 92.2 50 129.6 87.4 37.5 37.5 66.9 81.1 87.4 129.6 21.3 50.3 32 103.7 32 158.7s-10.8 108.5-32 158.7c-20.5 48.6-50 92.2-87.4 129.6-37.5 37.5-81.1 66.9-129.6 87.4-50.3 21.3-103.7 32-158.7 32-55.1 0-108.5-10.8-158.7-32-48.6-20.5-92.2-50-129.6-87.4-37.5-37.5-66.9-81.1-87.4-129.6-21.3-50.3-32-103.7-32-158.7s10.8-108.5 32-158.7c20.5-48.6 50-92.2 87.4-129.6 37.5-37.5 81.1-66.9 129.6-87.4 50.2-21.2 103.6-32 158.7-32m0-40c-247.3 0-447.8 200.5-447.8 447.8s200.5 447.8 447.8 447.8S958.3 760 958.3 512.6 757.8 64.8 510.5 64.8z"  /></svg>