<?xml version="1.0" standalone="no"?><!DOCTYPE svg PUBLIC "-//W3C//DTD SVG 1.1//EN" "http://www.w3.org/Graphics/SVG/1.1/DTD/svg11.dtd"><svg class="icon" width="32px" height="32.00px" viewBox="0 0 1024 1024" version="1.1" xmlns="http://www.w3.org/2000/svg"><path fill="#515151" d="M196.923077 512c0-105.550769 57.895385-140.603077 152.812308-140.603077 27.963077 0 64.590769 3.544615 81.92 9.846154v45.686154c-22.843077-7.483077-49.624615-11.027692-77.981539-11.027693-63.015385 0-94.129231 20.48-94.129231 96.098462 0 79.950769 27.569231 96.886154 91.372308 96.886154 13.784615 0 27.569231-0.393846 38.596923-3.150769v-67.741539H333.981538v-43.323077h110.67077v146.116923c-23.236923 6.301538-59.076923 11.815385-98.067693 11.815385-93.341538 0-149.661538-25.993846-149.661538-140.603077zM512.787692 375.335385h58.289231v273.32923h-58.289231V375.335385zM702.227692 420.233846v72.073846h115.79077v44.898462h-115.79077v111.458461h-58.28923V375.335385H827.076923v44.898461h-124.849231zM787.692308 129.969231c58.683077 0 106.338462 47.655385 106.338461 106.338461v551.384616c0 58.683077-47.655385 106.338462-106.338461 106.338461H236.307692c-58.683077 0-106.338462-47.655385-106.338461-106.338461V236.307692c0-58.683077 47.655385-106.338462 106.338461-106.338461h551.384616M787.692308 78.769231H236.307692C149.267692 78.769231 78.769231 149.267692 78.769231 236.307692v551.384616c0 87.04 70.498462 157.538462 157.538461 157.538461h551.384616c87.04 0 157.538462-70.498462 157.538461-157.538461V236.307692c0-87.04-70.498462-157.538462-157.538461-157.538461z" /></svg>