<?xml version="1.0" standalone="no"?><!DOCTYPE svg PUBLIC "-//W3C//DTD SVG 1.1//EN" "http://www.w3.org/Graphics/SVG/1.1/DTD/svg11.dtd"><svg class="icon" width="32px" height="32.00px" viewBox="0 0 1024 1024" version="1.1" xmlns="http://www.w3.org/2000/svg"><path fill="#515151" d="M881.2 961.3H136c-42.2 0-76.5-34.3-76.5-76.5V139.5C59.5 97.3 93.8 63 136 63h745.2c42.2 0 76.5 34.3 76.5 76.5v745.2c0.1 42.2-34.3 76.6-76.5 76.6zM136 109.6c-16.5 0-29.9 13.4-29.9 29.9v745.2c0 16.5 13.4 29.9 29.9 29.9h745.2c16.5 0 29.9-13.4 29.9-29.9V139.5c0-16.5-13.4-29.9-29.9-29.9H136z"  /></svg>