<?xml version="1.0" standalone="no"?><!DOCTYPE svg PUBLIC "-//W3C//DTD SVG 1.1//EN" "http://www.w3.org/Graphics/SVG/1.1/DTD/svg11.dtd"><svg class="icon" width="32px" height="32.00px" viewBox="0 0 1024 1024" version="1.1" xmlns="http://www.w3.org/2000/svg"><path fill="#515151" d="M414.165333 567.168a42.624 42.624 0 1 1-60.330666 60.330667l-213.333334-213.333334-3.114666-3.498666-0.298667-0.341334-0.725333-0.938666a32.085333 32.085333 0 0 1-3.029334-4.736 49.536 49.536 0 0 1-2.304-4.821334l-0.938666-2.56-0.554667-1.92a65.621333 65.621333 0 0 1-0.682667-2.773333l-0.384-2.261333A43.52 43.52 0 0 1 128 384l0.170667 3.797333A66.261333 66.261333 0 0 1 128 384.810667V384v-0.810667c0-0.981333 0.085333-1.962667 0.170667-2.986666l0.298666-2.56 0.384-2.218667c0.170667-0.938667 0.426667-1.877333 0.64-2.773333l0.64-1.962667c0.256-0.853333 0.597333-1.664 0.896-2.517333a34.858667 34.858667 0 0 1 2.304-4.821334l0.896-1.536a40.874667 40.874667 0 0 1 6.272-7.936l-3.413333 3.84a42.112 42.112 0 0 1 3.413333-3.84l213.333334-213.333333a42.624 42.624 0 1 1 60.330666 60.330667L273.664 341.333333H682.666667a213.290667 213.290667 0 0 1 213.12 204.074667L896 554.666667v298.666666a42.666667 42.666667 0 0 1-85.333333 0v-298.666666a128 128 0 0 0-128-128H273.664l140.501333 140.501333z" /></svg>