<?xml version="1.0" standalone="no"?><!DOCTYPE svg PUBLIC "-//W3C//DTD SVG 1.1//EN" "http://www.w3.org/Graphics/SVG/1.1/DTD/svg11.dtd"><svg class="icon" width="32px" height="32.00px" viewBox="0 0 1024 1024" version="1.1" xmlns="http://www.w3.org/2000/svg"><path fill="#515151" d="M544 201.6v470.4c0 19.2-12.8 32-32 32s-32-12.8-32-32v-460.8l-121.6 121.6c-12.8 12.8-32 12.8-44.8 0-12.8-12.8-12.8-32 0-44.8l156.8-156.8c25.6-25.6 64-25.6 89.6 0l156.8 156.8c12.8 12.8 12.8 32 0 44.8-12.8 12.8-32 12.8-44.8 0l-128-131.2z m288 406.4c0-19.2 12.8-32 32-32s32 12.8 32 32v160c0 54.4-41.6 96-96 96h-576c-54.4 0-96-41.6-96-96v-160c0-19.2 12.8-32 32-32s32 12.8 32 32v160c0 19.2 12.8 32 32 32h576c19.2 0 32-12.8 32-32v-160z" /></svg>