<?xml version="1.0" standalone="no"?><!DOCTYPE svg PUBLIC "-//W3C//DTD SVG 1.1//EN" "http://www.w3.org/Graphics/SVG/1.1/DTD/svg11.dtd"><svg class="icon" width="32px" height="32.00px" viewBox="0 0 1024 1024" version="1.1" xmlns="http://www.w3.org/2000/svg"><path fill="#515151" d="M796.444444 910.222222H484.977778V540.444444H853.333333V227.555556a56.888889 56.888889 0 0 0-56.888889-56.888889H484.977778v369.777777H113.777778V853.333333a56.888889 56.888889 0 0 0 56.888889 56.888889h625.777777z m56.888889-369.777778h56.888889V853.333333a113.777778 113.777778 0 0 1-113.777778 113.777778H170.666667a113.777778 113.777778 0 0 1-113.777778-113.777778V227.555556a113.777778 113.777778 0 0 1 113.777778-113.777778h625.777777a113.777778 113.777778 0 0 1 113.777778 113.777778v570.311111z" /></svg>